# xmcd CD database file
#
# Track frame offsets:
#	150
#	16106
#	27973
#	39838
#	52116
#	74797
#	89840
#	98579
#	112139
#	124584
#	137823
#	151337
#	165713
#	177921
#	190157
#	205825
#	219287
#	232193
#	247966
#	263497
#	276085
#	289641
#	301535
#	311979
#	324565
#	339476
#
# Disc length: 4675 seconds
#
# Revision: 0
# Processed by: cddbd v1.5.1PL2 Copyright (c) Steve Scherf et al.
# Submitted via: CDex 1.50
#
DISCID=7612411a
DTITLE=Various Artist - Blues, Blues Christmas - Disc 1
DYEAR=2005
DGENRE=Blues
TTITLE0=Frankie "Half Pint" Jaxon - Christ Was Born On Christmas Morn
TTITLE1=Titus Turner with Danny Kessler Orchestra - Christmas Morning Blues
TTITLE2=The Cats And The Fiddle - Hep Cat's Holiday
TTITLE3=Ralph Willis - Christmas Blues
TTITLE4=Willie Blackwell - Junior's A Jap Girl's Christmas For His Santa Claus
TTITLE5=Butterbeans And Susie - Papa Ain't No Santa Claus (Mama Ain't No Christmas Tree
TTITLE6=Jimmy Butler - Trim Your Tree
TTITLE7="Gatemouth" Moore - Christmas Blues
TTITLE8=Harry Crafton with Doc Bagby's Orchestra - Bring That Cadillac Back
TTITLE9=Bertha "Chippie" Hill - Christmas Man Blues
TTITLE10=Cecil Gant - Hello Santa Claus
TTITLE11=Bumble Bee Slim - Christmas And No Santa Claus
TTITLE12=Felix Gross And His Orchestra - Love For Christmas
TTITLE13=Lonnie Johnson - Happy New Year Darling
TTITLE14=Tampa Red - Christmas And New Year's Blues
TTITLE15=Amos Milburn - Let's Make Christmas Merry, Baby
TTITLE16=Julia Lee And Her Boy Friends - Christmas Spirit
TTITLE17=Bessie Smith - At The Christmas Ball
TTITLE18=Rev.  A.W. Nix - How Will You Spend Christmas
TTITLE19=Harmon Ray - Xmas Blues
TTITLE20=Jimmy Witherspoon - How I Hate To See Xmas Come Around (Christmas Blues)
TTITLE21=Joe Turner with Pete Johnson and His Orchestra - Christmas Date Boogie
TTITLE22=Sugar Chile Robinson - Christmas Boogie
TTITLE23=Leadbelly - The Christmas Song
TTITLE24=Sam Lightnin' Hopkins - Happy New Year
TTITLE25=Rev. Edward Clayborn - The Wrong Way To Celebrate Xmas
EXTD=YEAR: 2005
EXTT0=
EXTT1=
EXTT2=
EXTT3=
EXTT4=
EXTT5=
EXTT6=
EXTT7=
EXTT8=
EXTT9=
EXTT10=
EXTT11=
EXTT12=
EXTT13=
EXTT14=
EXTT15=
EXTT16=
EXTT17=
EXTT18=
EXTT19=
EXTT20=
EXTT21=
EXTT22=
EXTT23=
EXTT24=
EXTT25=
PLAYORDER=
